<svg fill="none" height="48" viewBox="0 0 48 48" width="48" xmlns="http://www.w3.org/2000/svg"><path clip-rule="evenodd" d="m48 0h-48v48h48zm-21.8489 33.5644c-5.0311-2.5777-9.1555-6.6844-11.7155-11.7155l3.9111-3.9111c.4977-.4978.64-1.1911.4444-1.8134-.6578-1.9911-1.0133-4.1244-1.0133-6.34662 0-.97778-.8-1.77778-1.7778-1.77778h-6.22222c-.97778 0-1.77778.8-1.77778 1.77778 0 16.69332 13.5289 30.22222 30.2222 30.22222.9778 0 1.7778-.8 1.7778-1.7778v-6.2044c0-.9778-.8-1.7778-1.7778-1.7778-2.2044 0-4.3555-.3556-6.3466-1.0133-.6223-.2134-1.3334-.0534-1.8134.4266z" fill="#333" fill-rule="evenodd"/></svg>